<svg version="1.1" xmlns="http://www.w3.org/2000/svg" xmlns:xlink="http://www.w3.org/1999/xlink" width="64" height="64" viewBox="0,0,256,256"><g fill="#dce1ec" fill-rule="nonzero" stroke="none" stroke-width="1" stroke-linecap="butt" stroke-linejoin="miter" stroke-miterlimit="10" stroke-dasharray="" stroke-dashoffset="0" font-family="none" font-weight="none" font-size="none" text-anchor="none" style="mix-blend-mode: normal"><g transform="translate(-2.57933,-0.10321) scale(16,16)"><path d="M10.97,4.97c0.29281,-0.27877 0.75389,-0.27528 1.04245,0.00789c0.28856,0.28317 0.30075,0.74409 0.02755,1.04211l-3.99,4.99c-0.13863,0.14931 -0.33204,0.2358 -0.53575,0.23958c-0.20371,0.00377 -0.40019,-0.0755 -0.54425,-0.21958l-2.646,-2.646c-0.20065,-0.18697 -0.28325,-0.46856 -0.21539,-0.73429c0.06786,-0.26573 0.27536,-0.47323 0.5411,-0.5411c0.26573,-0.06786 0.54732,0.01473 0.73429,0.21539l2.094,2.093l3.473,-4.425c0.00625,-0.0077 0.01293,-0.01504 0.02,-0.022z"></path></g></g></svg>